<mxfile host="app.diagrams.net" modified="2022-04-07T14:09:48.077Z" agent="5.0 (Windows NT 10.0; Win64; x64) AppleWebKit/537.36 (KHTML, like Gecko) Chrome/99.0.4844.84 Safari/537.36" etag="Civn1UjBznoY2U6RxPDf" version="17.4.0" type="github">
  <diagram name="Page-1" id="03018318-947c-dd8e-b7a3-06fadd420f32">
    <mxGraphModel dx="5840" dy="3390" grid="1" gridSize="10" guides="1" tooltips="1" connect="1" arrows="1" fold="1" page="1" pageScale="1" pageWidth="1100" pageHeight="850" background="#ffffff" math="0" shadow="0">
      <root>
        <mxCell id="0" />
        <mxCell id="1" parent="0" />
        <mxCell id="677b7b8949515195-1" value="" style="whiteSpace=wrap;html=1;rounded=0;shadow=0;labelBackgroundColor=none;strokeColor=#000000;strokeWidth=1;fillColor=none;fontFamily=Verdana;fontSize=12;fontColor=#000000;align=center;comic=1;" parent="1" vertex="1">
          <mxGeometry x="30" y="10" width="1060" height="810" as="geometry" />
        </mxCell>
        <mxCell id="677b7b8949515195-2" value="LOGO" style="whiteSpace=wrap;html=1;rounded=0;shadow=0;labelBackgroundColor=none;strokeWidth=1;fontFamily=Verdana;fontSize=28;align=center;comic=1;" parent="1" vertex="1">
          <mxGeometry x="30" y="35" width="70" height="30" as="geometry" />
        </mxCell>
        <mxCell id="677b7b8949515195-3" value="Search" style="strokeWidth=1;shadow=0;dashed=0;align=center;html=1;shape=mxgraph.mockup.forms.searchBox;strokeColor=#999999;mainText=;strokeColor2=#008cff;fontColor=#666666;fontSize=17;align=left;spacingLeft=3;rounded=0;labelBackgroundColor=none;comic=1;" parent="1" vertex="1">
          <mxGeometry x="710" y="40" width="220" height="30" as="geometry" />
        </mxCell>
        <mxCell id="677b7b8949515195-4" value="신상품" style="text;html=1;points=[];align=left;verticalAlign=top;spacingTop=-4;fontSize=14;fontFamily=Verdana;fillColor=#f8cecc;strokeColor=#b85450;" parent="1" vertex="1">
          <mxGeometry x="380" y="40" width="60" height="20" as="geometry" />
        </mxCell>
        <mxCell id="677b7b8949515195-5" value="Men" style="text;html=1;points=[];align=left;verticalAlign=top;spacingTop=-4;fontSize=14;fontFamily=Verdana;fillColor=#f8cecc;strokeColor=#b85450;" parent="1" vertex="1">
          <mxGeometry x="460" y="40" width="60" height="20" as="geometry" />
        </mxCell>
        <mxCell id="677b7b8949515195-6" value="Women" style="text;html=1;points=[];align=left;verticalAlign=top;spacingTop=-4;fontSize=14;fontFamily=Verdana;fillColor=#f8cecc;strokeColor=#b85450;" parent="1" vertex="1">
          <mxGeometry x="537" y="40" width="60" height="20" as="geometry" />
        </mxCell>
        <mxCell id="677b7b8949515195-7" value="Kids" style="text;html=1;points=[];align=left;verticalAlign=top;spacingTop=-4;fontSize=14;fontFamily=Verdana;fillColor=#f8cecc;strokeColor=#b85450;" parent="1" vertex="1">
          <mxGeometry x="610" y="40" width="60" height="20" as="geometry" />
        </mxCell>
        <mxCell id="677b7b8949515195-8" value="" style="whiteSpace=wrap;html=1;rounded=0;shadow=0;labelBackgroundColor=none;strokeWidth=1;fillColor=#fff2cc;fontFamily=Verdana;fontSize=12;align=center;comic=1;strokeColor=#d6b656;" parent="1" vertex="1">
          <mxGeometry x="30" y="230" width="200" height="450" as="geometry" />
        </mxCell>
        <mxCell id="677b7b8949515195-9" value="" style="line;strokeWidth=1;html=1;rounded=0;shadow=0;labelBackgroundColor=none;fillColor=none;fontFamily=Verdana;fontSize=14;fontColor=#000000;align=center;comic=1;" parent="1" vertex="1">
          <mxGeometry x="20" y="30" width="1060" height="120" as="geometry" />
        </mxCell>
        <mxCell id="677b7b8949515195-10" value="" style="whiteSpace=wrap;html=1;rounded=0;shadow=0;labelBackgroundColor=none;strokeWidth=1;fillColor=#fff2cc;fontFamily=Verdana;fontSize=12;align=center;comic=1;strokeColor=#d6b656;" parent="1" vertex="1">
          <mxGeometry x="30" y="160" width="1040" height="50" as="geometry" />
        </mxCell>
        <mxCell id="677b7b8949515195-11" value="전체보기&lt;span style=&quot;white-space: pre&quot;&gt;	&lt;/span&gt;" style="text;html=1;points=[];align=left;verticalAlign=top;spacingTop=-4;fontSize=14;fontFamily=Verdana;fillColor=#e1d5e7;strokeColor=#9673a6;" parent="1" vertex="1">
          <mxGeometry x="460" y="172.5" width="60" height="15" as="geometry" />
        </mxCell>
        <mxCell id="677b7b8949515195-12" value="신발" style="text;html=1;points=[];align=left;verticalAlign=top;spacingTop=-4;fontSize=14;fontFamily=Verdana;fillColor=#e1d5e7;strokeColor=#9673a6;" parent="1" vertex="1">
          <mxGeometry x="560" y="172.5" width="60" height="20" as="geometry" />
        </mxCell>
        <mxCell id="677b7b8949515195-13" value="의류" style="text;html=1;points=[];align=left;verticalAlign=top;spacingTop=-4;fontSize=14;fontFamily=Verdana;fillColor=#e1d5e7;strokeColor=#9673a6;" parent="1" vertex="1">
          <mxGeometry x="640" y="175" width="60" height="20" as="geometry" />
        </mxCell>
        <mxCell id="677b7b8949515195-15" value="&lt;div style=&quot;text-align: justify&quot;&gt;&lt;span&gt;Lorem ipsum dolor sit amet, consectetur adipisicing elit, sed do eiusmod tempor incididunt ut labore et dolore magna aliqua. Ut enim ad minim veniam, quis nostrud exercitation ullamco laboris nisi ut aliquip ex ea commodo consequat. Duis aute irure dolor in reprehenderit in voluptate velit esse cillum dolore eu fugiat nulla pariatur. Excepteur sint occaecat cupidatat non proident, sunt in culpa qui officia deserunt mollit anim id est laborum.&lt;/span&gt;&lt;/div&gt;&lt;div style=&quot;text-align: justify&quot;&gt;&lt;span&gt;Sed ut perspiciatis unde omnis iste natus error sit voluptatem accusantium doloremque laudantium, totam rem aperiam, eaque ipsa quae ab illo inventore veritatis et quasi architecto beatae vitae dicta sunt explicabo. Nemo enim ipsam voluptatem quia voluptas sit aspernatur aut odit aut fugit, sed quia consequuntur magni dolores eos qui ratione voluptatem sequi nesciunt.&amp;nbsp;&lt;/span&gt;&lt;/div&gt;" style="whiteSpace=wrap;html=1;rounded=0;shadow=0;labelBackgroundColor=none;strokeWidth=1;fillColor=none;fontFamily=Verdana;fontSize=12;align=center;verticalAlign=top;spacing=10;comic=1;" parent="1" vertex="1">
          <mxGeometry x="35" y="700" width="1030" height="130" as="geometry" />
        </mxCell>
        <mxCell id="677b7b8949515195-27" value="사이즈" style="text;html=1;points=[];align=left;verticalAlign=top;spacingTop=-4;fontSize=14;fontFamily=Verdana" parent="1" vertex="1">
          <mxGeometry x="40" y="250" width="170" height="20" as="geometry" />
        </mxCell>
        <mxCell id="677b7b8949515195-28" value="색상" style="text;html=1;points=[];align=left;verticalAlign=top;spacingTop=-4;fontSize=14;fontFamily=Verdana" parent="1" vertex="1">
          <mxGeometry x="40" y="286" width="170" height="20" as="geometry" />
        </mxCell>
        <mxCell id="677b7b8949515195-29" value="Section 3" style="text;html=1;points=[];align=left;verticalAlign=top;spacingTop=-4;fontSize=14;fontFamily=Verdana" parent="1" vertex="1">
          <mxGeometry x="40" y="321" width="170" height="20" as="geometry" />
        </mxCell>
        <mxCell id="677b7b8949515195-30" value="Section 4" style="text;html=1;points=[];align=left;verticalAlign=top;spacingTop=-4;fontSize=14;fontFamily=Verdana" parent="1" vertex="1">
          <mxGeometry x="40" y="357" width="170" height="20" as="geometry" />
        </mxCell>
        <mxCell id="677b7b8949515195-31" value="Section 7" style="text;html=1;points=[];align=left;verticalAlign=top;spacingTop=-4;fontSize=14;fontFamily=Verdana" parent="1" vertex="1">
          <mxGeometry x="40" y="464" width="170" height="20" as="geometry" />
        </mxCell>
        <mxCell id="677b7b8949515195-32" value="Section 8" style="text;html=1;points=[];align=left;verticalAlign=top;spacingTop=-4;fontSize=14;fontFamily=Verdana" parent="1" vertex="1">
          <mxGeometry x="40" y="500" width="170" height="20" as="geometry" />
        </mxCell>
        <mxCell id="677b7b8949515195-33" value="Section 9" style="text;html=1;points=[];align=left;verticalAlign=top;spacingTop=-4;fontSize=14;fontFamily=Verdana" parent="1" vertex="1">
          <mxGeometry x="40" y="536" width="170" height="20" as="geometry" />
        </mxCell>
        <mxCell id="677b7b8949515195-34" value="Section 10" style="text;html=1;points=[];align=left;verticalAlign=top;spacingTop=-4;fontSize=14;fontFamily=Verdana" parent="1" vertex="1">
          <mxGeometry x="40" y="571" width="170" height="20" as="geometry" />
        </mxCell>
        <mxCell id="677b7b8949515195-35" value="Section 11" style="text;html=1;points=[];align=left;verticalAlign=top;spacingTop=-4;fontSize=14;fontFamily=Verdana" parent="1" vertex="1">
          <mxGeometry x="40" y="607" width="170" height="20" as="geometry" />
        </mxCell>
        <mxCell id="677b7b8949515195-36" value="Section 12" style="text;html=1;points=[];align=left;verticalAlign=top;spacingTop=-4;fontSize=14;fontFamily=Verdana" parent="1" vertex="1">
          <mxGeometry x="40" y="643" width="170" height="20" as="geometry" />
        </mxCell>
        <mxCell id="677b7b8949515195-39" value="Section 5" style="text;html=1;points=[];align=left;verticalAlign=top;spacingTop=-4;fontSize=14;fontFamily=Verdana" parent="1" vertex="1">
          <mxGeometry x="40" y="393" width="170" height="20" as="geometry" />
        </mxCell>
        <mxCell id="677b7b8949515195-40" value="Section 6" style="text;html=1;points=[];align=left;verticalAlign=top;spacingTop=-4;fontSize=14;fontFamily=Verdana" parent="1" vertex="1">
          <mxGeometry x="40" y="429" width="170" height="20" as="geometry" />
        </mxCell>
        <mxCell id="677b7b8949515195-42" value="External Links" style="text;html=1;points=[];align=left;verticalAlign=top;spacingTop=-4;fontSize=14;fontFamily=Verdana" parent="1" vertex="1">
          <mxGeometry x="860" y="653" width="170" height="20" as="geometry" />
        </mxCell>
        <mxCell id="EGOBInb5VxWkymXx5lzQ-2" value="Men`s 신발" style="text;html=1;points=[];align=left;verticalAlign=top;spacingTop=-4;fontSize=14;fontFamily=Verdana" vertex="1" parent="1">
          <mxGeometry x="50" y="175" width="60" height="15" as="geometry" />
        </mxCell>
        <mxCell id="EGOBInb5VxWkymXx5lzQ-3" value="필터" style="text;html=1;points=[];align=left;verticalAlign=top;spacingTop=-4;fontSize=14;fontFamily=Verdana;fillColor=#dae8fc;strokeColor=#6c8ebf;" vertex="1" parent="1">
          <mxGeometry x="890" y="175" width="60" height="20" as="geometry" />
        </mxCell>
        <mxCell id="EGOBInb5VxWkymXx5lzQ-4" value="신상품순" style="text;html=1;points=[];align=left;verticalAlign=top;spacingTop=-4;fontSize=14;fontFamily=Verdana;fillColor=#d5e8d4;strokeColor=#82b366;" vertex="1" parent="1">
          <mxGeometry x="970" y="175" width="60" height="20" as="geometry" />
        </mxCell>
        <mxCell id="EGOBInb5VxWkymXx5lzQ-5" value="" style="endArrow=none;html=1;rounded=0;exitX=0.786;exitY=-0.032;exitDx=0;exitDy=0;exitPerimeter=0;" edge="1" parent="1" source="EGOBInb5VxWkymXx5lzQ-9">
          <mxGeometry width="50" height="50" relative="1" as="geometry">
            <mxPoint x="-140" y="330" as="sourcePoint" />
            <mxPoint x="30" y="187.5" as="targetPoint" />
          </mxGeometry>
        </mxCell>
        <mxCell id="EGOBInb5VxWkymXx5lzQ-7" value="" style="endArrow=none;html=1;rounded=0;startArrow=none;" edge="1" parent="1" source="677b7b8949515195-16">
          <mxGeometry width="50" height="50" relative="1" as="geometry">
            <mxPoint x="440" y="390" as="sourcePoint" />
            <mxPoint x="490" y="340" as="targetPoint" />
          </mxGeometry>
        </mxCell>
        <mxCell id="677b7b8949515195-16" value="" style="verticalLabelPosition=bottom;shadow=0;dashed=0;align=center;html=1;verticalAlign=top;strokeWidth=1;shape=mxgraph.mockup.graphics.simpleIcon;strokeColor=#999999;rounded=0;labelBackgroundColor=none;fontFamily=Verdana;fontSize=14;fontColor=#000000;comic=1;" parent="1" vertex="1">
          <mxGeometry x="240" y="235" width="810" height="440" as="geometry" />
        </mxCell>
        <mxCell id="EGOBInb5VxWkymXx5lzQ-8" value="" style="endArrow=none;html=1;rounded=0;" edge="1" parent="1" source="677b7b8949515195-8" target="EGOBInb5VxWkymXx5lzQ-9">
          <mxGeometry width="50" height="50" relative="1" as="geometry">
            <mxPoint x="439.99999999999955" y="390" as="sourcePoint" />
            <mxPoint x="-140" y="330" as="targetPoint" />
          </mxGeometry>
        </mxCell>
        <mxCell id="EGOBInb5VxWkymXx5lzQ-9" value="&lt;font style=&quot;font-size: 28px&quot;&gt;스크롤 내려도 고정&lt;/font&gt;" style="text;html=1;strokeColor=#d6b656;fillColor=#fff2cc;align=center;verticalAlign=middle;whiteSpace=wrap;rounded=0;" vertex="1" parent="1">
          <mxGeometry x="-260" y="300" width="270" height="41" as="geometry" />
        </mxCell>
        <mxCell id="EGOBInb5VxWkymXx5lzQ-10" value="&lt;font style=&quot;font-size: 16px&quot;&gt;고객센터&lt;/font&gt;" style="text;html=1;strokeColor=none;fillColor=none;align=center;verticalAlign=middle;whiteSpace=wrap;rounded=0;fontSize=28;" vertex="1" parent="1">
          <mxGeometry x="720" y="110" width="230" height="30" as="geometry" />
        </mxCell>
        <mxCell id="EGOBInb5VxWkymXx5lzQ-11" value="&lt;font style=&quot;font-size: 16px&quot;&gt;멤버 가입&lt;/font&gt;" style="text;html=1;strokeColor=none;fillColor=none;align=center;verticalAlign=middle;whiteSpace=wrap;rounded=0;fontSize=28;" vertex="1" parent="1">
          <mxGeometry x="860" y="110" width="140" height="30" as="geometry" />
        </mxCell>
        <mxCell id="EGOBInb5VxWkymXx5lzQ-12" value="&lt;font style=&quot;font-size: 16px&quot;&gt;로그인&lt;/font&gt;" style="text;html=1;strokeColor=none;fillColor=none;align=center;verticalAlign=middle;whiteSpace=wrap;rounded=0;fontSize=28;" vertex="1" parent="1">
          <mxGeometry x="960" y="110" width="110" height="30" as="geometry" />
        </mxCell>
        <mxCell id="EGOBInb5VxWkymXx5lzQ-13" value="" style="ellipse;whiteSpace=wrap;html=1;aspect=fixed;fontSize=16;fillColor=#0050ef;fontColor=#ffffff;strokeColor=#001DBC;" vertex="1" parent="1">
          <mxGeometry x="950" y="40" width="30" height="30" as="geometry" />
        </mxCell>
        <mxCell id="EGOBInb5VxWkymXx5lzQ-14" value="" style="ellipse;whiteSpace=wrap;html=1;aspect=fixed;fontSize=16;fillColor=#d80073;fontColor=#ffffff;strokeColor=#A50040;" vertex="1" parent="1">
          <mxGeometry x="1010" y="40" width="30" height="30" as="geometry" />
        </mxCell>
        <mxCell id="EGOBInb5VxWkymXx5lzQ-15" value="위시리스트" style="text;html=1;strokeColor=#001DBC;fillColor=#0050ef;align=center;verticalAlign=middle;whiteSpace=wrap;rounded=0;fontSize=16;fontColor=#ffffff;" vertex="1" parent="1">
          <mxGeometry x="860" y="-40" width="135" height="30" as="geometry" />
        </mxCell>
        <mxCell id="EGOBInb5VxWkymXx5lzQ-17" value="장바구니" style="text;html=1;align=center;verticalAlign=middle;whiteSpace=wrap;rounded=0;fontSize=16;fillColor=#d80073;fontColor=#ffffff;strokeColor=#A50040;" vertex="1" parent="1">
          <mxGeometry x="980" y="-40" width="120" height="30" as="geometry" />
        </mxCell>
        <mxCell id="EGOBInb5VxWkymXx5lzQ-18" value="" style="endArrow=none;html=1;rounded=0;fontSize=16;exitX=0.5;exitY=0;exitDx=0;exitDy=0;entryX=0.575;entryY=1.055;entryDx=0;entryDy=0;entryPerimeter=0;" edge="1" parent="1" source="EGOBInb5VxWkymXx5lzQ-13" target="EGOBInb5VxWkymXx5lzQ-15">
          <mxGeometry width="50" height="50" relative="1" as="geometry">
            <mxPoint x="330" y="190" as="sourcePoint" />
            <mxPoint x="380" y="140" as="targetPoint" />
          </mxGeometry>
        </mxCell>
        <mxCell id="EGOBInb5VxWkymXx5lzQ-19" value="" style="endArrow=none;html=1;rounded=0;fontSize=16;exitX=0.5;exitY=0;exitDx=0;exitDy=0;entryX=0.651;entryY=1.016;entryDx=0;entryDy=0;entryPerimeter=0;" edge="1" parent="1" source="EGOBInb5VxWkymXx5lzQ-14" target="EGOBInb5VxWkymXx5lzQ-17">
          <mxGeometry width="50" height="50" relative="1" as="geometry">
            <mxPoint x="330" y="190" as="sourcePoint" />
            <mxPoint x="380" y="140" as="targetPoint" />
          </mxGeometry>
        </mxCell>
        <mxCell id="EGOBInb5VxWkymXx5lzQ-20" value="클릭하면 사이트 내에서 움직임" style="text;html=1;strokeColor=#9673a6;fillColor=#e1d5e7;align=center;verticalAlign=middle;whiteSpace=wrap;rounded=0;fontSize=16;" vertex="1" parent="1">
          <mxGeometry x="400" y="110" width="257" height="30" as="geometry" />
        </mxCell>
        <mxCell id="EGOBInb5VxWkymXx5lzQ-21" value="" style="endArrow=none;html=1;rounded=0;fontSize=16;exitX=0.626;exitY=-0.135;exitDx=0;exitDy=0;exitPerimeter=0;entryX=0.25;entryY=1;entryDx=0;entryDy=0;" edge="1" parent="1" source="677b7b8949515195-11" target="EGOBInb5VxWkymXx5lzQ-20">
          <mxGeometry width="50" height="50" relative="1" as="geometry">
            <mxPoint x="330" y="300" as="sourcePoint" />
            <mxPoint x="380" y="250" as="targetPoint" />
          </mxGeometry>
        </mxCell>
        <mxCell id="EGOBInb5VxWkymXx5lzQ-22" value="" style="endArrow=none;html=1;rounded=0;fontSize=16;exitX=0.352;exitY=-0.043;exitDx=0;exitDy=0;exitPerimeter=0;entryX=0.5;entryY=1;entryDx=0;entryDy=0;" edge="1" parent="1" source="677b7b8949515195-12" target="EGOBInb5VxWkymXx5lzQ-20">
          <mxGeometry width="50" height="50" relative="1" as="geometry">
            <mxPoint x="330" y="300" as="sourcePoint" />
            <mxPoint x="380" y="250" as="targetPoint" />
          </mxGeometry>
        </mxCell>
        <mxCell id="EGOBInb5VxWkymXx5lzQ-23" value="" style="endArrow=none;html=1;rounded=0;fontSize=16;entryX=0.215;entryY=0.009;entryDx=0;entryDy=0;entryPerimeter=0;exitX=0.801;exitY=1.075;exitDx=0;exitDy=0;exitPerimeter=0;" edge="1" parent="1" source="EGOBInb5VxWkymXx5lzQ-20" target="677b7b8949515195-13">
          <mxGeometry width="50" height="50" relative="1" as="geometry">
            <mxPoint x="330" y="300" as="sourcePoint" />
            <mxPoint x="380" y="250" as="targetPoint" />
          </mxGeometry>
        </mxCell>
        <mxCell id="EGOBInb5VxWkymXx5lzQ-24" value="클릭 시 왼쪽 nav 숨김" style="text;html=1;strokeColor=#6c8ebf;fillColor=#dae8fc;align=center;verticalAlign=middle;whiteSpace=wrap;rounded=0;fontSize=16;" vertex="1" parent="1">
          <mxGeometry x="700" y="-40" width="170" height="30" as="geometry" />
        </mxCell>
        <mxCell id="EGOBInb5VxWkymXx5lzQ-25" value="" style="endArrow=none;html=1;rounded=0;fontSize=16;exitX=0.5;exitY=1;exitDx=0;exitDy=0;entryX=0.166;entryY=0.009;entryDx=0;entryDy=0;entryPerimeter=0;" edge="1" parent="1" source="EGOBInb5VxWkymXx5lzQ-24" target="EGOBInb5VxWkymXx5lzQ-3">
          <mxGeometry width="50" height="50" relative="1" as="geometry">
            <mxPoint x="330" y="300" as="sourcePoint" />
            <mxPoint x="380" y="250" as="targetPoint" />
          </mxGeometry>
        </mxCell>
        <mxCell id="EGOBInb5VxWkymXx5lzQ-26" value="클릭 시 상품 노출 기준 선택" style="text;html=1;strokeColor=#82b366;fillColor=#d5e8d4;align=center;verticalAlign=middle;whiteSpace=wrap;rounded=0;fontSize=16;" vertex="1" parent="1">
          <mxGeometry x="850" y="-120" width="250" height="30" as="geometry" />
        </mxCell>
        <mxCell id="EGOBInb5VxWkymXx5lzQ-29" value="" style="endArrow=none;html=1;rounded=0;fontSize=16;entryX=0.617;entryY=-0.109;entryDx=0;entryDy=0;entryPerimeter=0;exitX=0.534;exitY=0.976;exitDx=0;exitDy=0;exitPerimeter=0;" edge="1" parent="1" source="EGOBInb5VxWkymXx5lzQ-26" target="EGOBInb5VxWkymXx5lzQ-4">
          <mxGeometry width="50" height="50" relative="1" as="geometry">
            <mxPoint x="330" y="300" as="sourcePoint" />
            <mxPoint x="380" y="250" as="targetPoint" />
          </mxGeometry>
        </mxCell>
        <mxCell id="EGOBInb5VxWkymXx5lzQ-30" value="" style="rounded=0;whiteSpace=wrap;html=1;fontSize=16;" vertex="1" parent="1">
          <mxGeometry x="290" y="280" width="170" height="140" as="geometry" />
        </mxCell>
        <mxCell id="EGOBInb5VxWkymXx5lzQ-31" value="" style="rounded=0;whiteSpace=wrap;html=1;fontSize=16;" vertex="1" parent="1">
          <mxGeometry x="670" y="280" width="170" height="140" as="geometry" />
        </mxCell>
        <mxCell id="EGOBInb5VxWkymXx5lzQ-32" value="" style="rounded=0;whiteSpace=wrap;html=1;fontSize=16;" vertex="1" parent="1">
          <mxGeometry x="290" y="487" width="170" height="140" as="geometry" />
        </mxCell>
        <mxCell id="EGOBInb5VxWkymXx5lzQ-33" value="" style="rounded=0;whiteSpace=wrap;html=1;fontSize=16;" vertex="1" parent="1">
          <mxGeometry x="670" y="484" width="170" height="140" as="geometry" />
        </mxCell>
        <mxCell id="EGOBInb5VxWkymXx5lzQ-34" value="1" style="text;html=1;strokeColor=none;fillColor=none;align=center;verticalAlign=middle;whiteSpace=wrap;rounded=0;fontSize=16;" vertex="1" parent="1">
          <mxGeometry x="490" y="638" width="60" height="30" as="geometry" />
        </mxCell>
        <mxCell id="EGOBInb5VxWkymXx5lzQ-35" value="2" style="text;html=1;strokeColor=none;fillColor=none;align=center;verticalAlign=middle;whiteSpace=wrap;rounded=0;fontSize=16;" vertex="1" parent="1">
          <mxGeometry x="550" y="638" width="60" height="30" as="geometry" />
        </mxCell>
        <mxCell id="EGOBInb5VxWkymXx5lzQ-36" value="3" style="text;html=1;strokeColor=none;fillColor=none;align=center;verticalAlign=middle;whiteSpace=wrap;rounded=0;fontSize=16;" vertex="1" parent="1">
          <mxGeometry x="600" y="638" width="60" height="30" as="geometry" />
        </mxCell>
        <mxCell id="EGOBInb5VxWkymXx5lzQ-37" value="&lt;font style=&quot;font-size: 70px&quot;&gt;설명&lt;/font&gt;" style="text;html=1;strokeColor=none;fillColor=none;align=center;verticalAlign=middle;whiteSpace=wrap;rounded=0;fontSize=16;" vertex="1" parent="1">
          <mxGeometry x="477" y="286" width="173" height="134" as="geometry" />
        </mxCell>
        <mxCell id="EGOBInb5VxWkymXx5lzQ-38" value="&lt;font style=&quot;font-size: 70px&quot;&gt;설명&lt;/font&gt;" style="text;html=1;strokeColor=none;fillColor=none;align=center;verticalAlign=middle;whiteSpace=wrap;rounded=0;fontSize=16;" vertex="1" parent="1">
          <mxGeometry x="860" y="283" width="173" height="134" as="geometry" />
        </mxCell>
        <mxCell id="EGOBInb5VxWkymXx5lzQ-39" value="&lt;font style=&quot;font-size: 70px&quot;&gt;설명&lt;/font&gt;" style="text;html=1;strokeColor=none;fillColor=none;align=center;verticalAlign=middle;whiteSpace=wrap;rounded=0;fontSize=16;" vertex="1" parent="1">
          <mxGeometry x="477" y="487" width="173" height="134" as="geometry" />
        </mxCell>
        <mxCell id="EGOBInb5VxWkymXx5lzQ-40" value="&lt;font style=&quot;font-size: 70px&quot;&gt;설명&lt;/font&gt;" style="text;html=1;strokeColor=none;fillColor=none;align=center;verticalAlign=middle;whiteSpace=wrap;rounded=0;fontSize=16;" vertex="1" parent="1">
          <mxGeometry x="867" y="484" width="173" height="134" as="geometry" />
        </mxCell>
        <mxCell id="EGOBInb5VxWkymXx5lzQ-41" value="&lt;font style=&quot;font-size: 70px&quot;&gt;그림&lt;/font&gt;" style="text;html=1;strokeColor=none;fillColor=none;align=center;verticalAlign=middle;whiteSpace=wrap;rounded=0;fontSize=16;" vertex="1" parent="1">
          <mxGeometry x="290" y="286" width="173" height="134" as="geometry" />
        </mxCell>
        <mxCell id="EGOBInb5VxWkymXx5lzQ-42" value="&lt;font style=&quot;font-size: 70px&quot;&gt;그림&lt;/font&gt;" style="text;html=1;strokeColor=none;fillColor=none;align=center;verticalAlign=middle;whiteSpace=wrap;rounded=0;fontSize=16;" vertex="1" parent="1">
          <mxGeometry x="668.5" y="280" width="173" height="134" as="geometry" />
        </mxCell>
        <mxCell id="EGOBInb5VxWkymXx5lzQ-43" value="&lt;font style=&quot;font-size: 70px&quot;&gt;그림&lt;/font&gt;" style="text;html=1;strokeColor=none;fillColor=none;align=center;verticalAlign=middle;whiteSpace=wrap;rounded=0;fontSize=16;" vertex="1" parent="1">
          <mxGeometry x="287" y="487" width="173" height="134" as="geometry" />
        </mxCell>
        <mxCell id="EGOBInb5VxWkymXx5lzQ-44" value="&lt;font style=&quot;font-size: 70px&quot;&gt;그림&lt;/font&gt;" style="text;html=1;strokeColor=none;fillColor=none;align=center;verticalAlign=middle;whiteSpace=wrap;rounded=0;fontSize=16;" vertex="1" parent="1">
          <mxGeometry x="667" y="484" width="173" height="134" as="geometry" />
        </mxCell>
        <mxCell id="EGOBInb5VxWkymXx5lzQ-45" value="" style="endArrow=none;html=1;rounded=0;fontSize=70;exitX=0.587;exitY=-0.241;exitDx=0;exitDy=0;exitPerimeter=0;entryX=0.587;entryY=0.053;entryDx=0;entryDy=0;entryPerimeter=0;" edge="1" parent="1" source="677b7b8949515195-4" target="677b7b8949515195-5">
          <mxGeometry width="50" height="50" relative="1" as="geometry">
            <mxPoint x="630" y="110" as="sourcePoint" />
            <mxPoint x="680" y="60" as="targetPoint" />
            <Array as="points">
              <mxPoint x="510" y="-60" />
            </Array>
          </mxGeometry>
        </mxCell>
        <mxCell id="EGOBInb5VxWkymXx5lzQ-46" value="" style="endArrow=none;html=1;rounded=0;fontSize=70;exitX=0.52;exitY=-0.006;exitDx=0;exitDy=0;exitPerimeter=0;entryX=0.421;entryY=0.053;entryDx=0;entryDy=0;entryPerimeter=0;" edge="1" parent="1" source="677b7b8949515195-6" target="677b7b8949515195-7">
          <mxGeometry width="50" height="50" relative="1" as="geometry">
            <mxPoint x="630" y="110" as="sourcePoint" />
            <mxPoint x="680" y="60" as="targetPoint" />
            <Array as="points">
              <mxPoint x="570" y="-60" />
            </Array>
          </mxGeometry>
        </mxCell>
        <mxCell id="EGOBInb5VxWkymXx5lzQ-47" value="&lt;font style=&quot;font-size: 36px&quot;&gt;클릭시 화면 이동&lt;/font&gt;" style="text;html=1;strokeColor=#b85450;fillColor=#f8cecc;align=center;verticalAlign=middle;whiteSpace=wrap;rounded=0;fontSize=70;" vertex="1" parent="1">
          <mxGeometry x="270" y="-100" width="500" height="30" as="geometry" />
        </mxCell>
        <mxCell id="EGOBInb5VxWkymXx5lzQ-53" value="" style="endArrow=none;html=1;rounded=0;fontSize=20;exitX=0.5;exitY=0;exitDx=0;exitDy=0;" edge="1" parent="1" source="677b7b8949515195-2" target="EGOBInb5VxWkymXx5lzQ-54">
          <mxGeometry width="50" height="50" relative="1" as="geometry">
            <mxPoint x="480" y="240" as="sourcePoint" />
            <mxPoint x="100" y="-70" as="targetPoint" />
          </mxGeometry>
        </mxCell>
        <mxCell id="EGOBInb5VxWkymXx5lzQ-54" value="클릭 시 메인화면" style="text;html=1;strokeColor=none;fillColor=none;align=center;verticalAlign=middle;whiteSpace=wrap;rounded=0;fontSize=20;" vertex="1" parent="1">
          <mxGeometry x="70" y="-85" width="200" height="30" as="geometry" />
        </mxCell>
        <mxCell id="EGOBInb5VxWkymXx5lzQ-56" value="" style="rounded=0;whiteSpace=wrap;html=1;fontSize=20;" vertex="1" parent="1">
          <mxGeometry x="1200" y="10" width="1050" height="810" as="geometry" />
        </mxCell>
        <mxCell id="EGOBInb5VxWkymXx5lzQ-59" value="" style="endArrow=classic;html=1;rounded=0;fontSize=20;entryX=-0.004;entryY=0.575;entryDx=0;entryDy=0;entryPerimeter=0;" edge="1" parent="1" source="EGOBInb5VxWkymXx5lzQ-42" target="EGOBInb5VxWkymXx5lzQ-56">
          <mxGeometry width="50" height="50" relative="1" as="geometry">
            <mxPoint x="830" y="420" as="sourcePoint" />
            <mxPoint x="880" y="370" as="targetPoint" />
          </mxGeometry>
        </mxCell>
        <mxCell id="EGOBInb5VxWkymXx5lzQ-61" value="" style="rounded=0;whiteSpace=wrap;html=1;fontSize=36;" vertex="1" parent="1">
          <mxGeometry x="1200" y="15" width="1050" height="80" as="geometry" />
        </mxCell>
        <mxCell id="EGOBInb5VxWkymXx5lzQ-62" value="신상품" style="text;html=1;points=[];align=left;verticalAlign=top;spacingTop=-4;fontSize=14;fontFamily=Verdana;fillColor=#f8cecc;strokeColor=#b85450;" vertex="1" parent="1">
          <mxGeometry x="1440" y="40" width="60" height="20" as="geometry" />
        </mxCell>
        <mxCell id="EGOBInb5VxWkymXx5lzQ-63" value="Men" style="text;html=1;points=[];align=left;verticalAlign=top;spacingTop=-4;fontSize=14;fontFamily=Verdana;fillColor=#f8cecc;strokeColor=#b85450;" vertex="1" parent="1">
          <mxGeometry x="1520" y="40" width="60" height="20" as="geometry" />
        </mxCell>
        <mxCell id="EGOBInb5VxWkymXx5lzQ-64" value="Women" style="text;html=1;points=[];align=left;verticalAlign=top;spacingTop=-4;fontSize=14;fontFamily=Verdana;fillColor=#f8cecc;strokeColor=#b85450;" vertex="1" parent="1">
          <mxGeometry x="1597" y="40" width="60" height="20" as="geometry" />
        </mxCell>
        <mxCell id="EGOBInb5VxWkymXx5lzQ-65" value="Kids" style="text;html=1;points=[];align=left;verticalAlign=top;spacingTop=-4;fontSize=14;fontFamily=Verdana;fillColor=#f8cecc;strokeColor=#b85450;" vertex="1" parent="1">
          <mxGeometry x="1670" y="40" width="60" height="20" as="geometry" />
        </mxCell>
        <mxCell id="EGOBInb5VxWkymXx5lzQ-66" value="LOGO" style="whiteSpace=wrap;html=1;rounded=0;shadow=0;labelBackgroundColor=none;strokeWidth=1;fontFamily=Verdana;fontSize=28;align=center;comic=1;" vertex="1" parent="1">
          <mxGeometry x="1210" y="40" width="70" height="30" as="geometry" />
        </mxCell>
        <mxCell id="EGOBInb5VxWkymXx5lzQ-67" value="Search" style="strokeWidth=1;shadow=0;dashed=0;align=center;html=1;shape=mxgraph.mockup.forms.searchBox;strokeColor=#999999;mainText=;strokeColor2=#008cff;fontColor=#666666;fontSize=17;align=left;spacingLeft=3;rounded=0;labelBackgroundColor=none;comic=1;" vertex="1" parent="1">
          <mxGeometry x="1870" y="40" width="220" height="30" as="geometry" />
        </mxCell>
        <mxCell id="EGOBInb5VxWkymXx5lzQ-68" value="&lt;font style=&quot;font-size: 16px&quot;&gt;고객센터&lt;/font&gt;" style="text;html=1;strokeColor=none;fillColor=none;align=center;verticalAlign=middle;whiteSpace=wrap;rounded=0;fontSize=28;" vertex="1" parent="1">
          <mxGeometry x="1880" y="90" width="230" height="30" as="geometry" />
        </mxCell>
        <mxCell id="EGOBInb5VxWkymXx5lzQ-69" value="&lt;font style=&quot;font-size: 16px&quot;&gt;멤버 가입&lt;/font&gt;" style="text;html=1;strokeColor=none;fillColor=none;align=center;verticalAlign=middle;whiteSpace=wrap;rounded=0;fontSize=28;" vertex="1" parent="1">
          <mxGeometry x="2020" y="90" width="140" height="30" as="geometry" />
        </mxCell>
        <mxCell id="EGOBInb5VxWkymXx5lzQ-70" value="&lt;font style=&quot;font-size: 16px&quot;&gt;로그인&lt;/font&gt;" style="text;html=1;strokeColor=none;fillColor=none;align=center;verticalAlign=middle;whiteSpace=wrap;rounded=0;fontSize=28;" vertex="1" parent="1">
          <mxGeometry x="2120" y="90" width="110" height="30" as="geometry" />
        </mxCell>
        <mxCell id="EGOBInb5VxWkymXx5lzQ-71" value="" style="ellipse;whiteSpace=wrap;html=1;aspect=fixed;fontSize=16;fillColor=#0050ef;fontColor=#ffffff;strokeColor=#001DBC;" vertex="1" parent="1">
          <mxGeometry x="2120" y="40" width="30" height="30" as="geometry" />
        </mxCell>
        <mxCell id="EGOBInb5VxWkymXx5lzQ-72" value="" style="ellipse;whiteSpace=wrap;html=1;aspect=fixed;fontSize=16;fillColor=#d80073;fontColor=#ffffff;strokeColor=#A50040;" vertex="1" parent="1">
          <mxGeometry x="2180" y="40" width="30" height="30" as="geometry" />
        </mxCell>
        <mxCell id="EGOBInb5VxWkymXx5lzQ-74" value="" style="whiteSpace=wrap;html=1;aspect=fixed;fontSize=36;" vertex="1" parent="1">
          <mxGeometry x="1280" y="187.5" width="205" height="205" as="geometry" />
        </mxCell>
        <mxCell id="EGOBInb5VxWkymXx5lzQ-75" value="" style="whiteSpace=wrap;html=1;aspect=fixed;fontSize=36;" vertex="1" parent="1">
          <mxGeometry x="1670" y="188" width="205" height="205" as="geometry" />
        </mxCell>
        <mxCell id="EGOBInb5VxWkymXx5lzQ-76" value="" style="whiteSpace=wrap;html=1;aspect=fixed;fontSize=36;" vertex="1" parent="1">
          <mxGeometry x="1280" y="422" width="205" height="205" as="geometry" />
        </mxCell>
        <mxCell id="EGOBInb5VxWkymXx5lzQ-77" value="" style="whiteSpace=wrap;html=1;aspect=fixed;fontSize=36;" vertex="1" parent="1">
          <mxGeometry x="1674.5" y="421.5" width="205" height="205" as="geometry" />
        </mxCell>
        <mxCell id="EGOBInb5VxWkymXx5lzQ-78" value="사" style="text;html=1;strokeColor=none;fillColor=none;align=center;verticalAlign=middle;whiteSpace=wrap;rounded=0;fontSize=36;" vertex="1" parent="1">
          <mxGeometry x="1310" y="240" width="150" height="120" as="geometry" />
        </mxCell>
        <mxCell id="EGOBInb5VxWkymXx5lzQ-79" value="진" style="text;html=1;strokeColor=none;fillColor=none;align=center;verticalAlign=middle;whiteSpace=wrap;rounded=0;fontSize=36;" vertex="1" parent="1">
          <mxGeometry x="1702" y="230" width="150" height="120" as="geometry" />
        </mxCell>
        <mxCell id="EGOBInb5VxWkymXx5lzQ-80" value="들" style="text;html=1;strokeColor=none;fillColor=none;align=center;verticalAlign=middle;whiteSpace=wrap;rounded=0;fontSize=36;" vertex="1" parent="1">
          <mxGeometry x="1307.5" y="464" width="150" height="120" as="geometry" />
        </mxCell>
        <mxCell id="EGOBInb5VxWkymXx5lzQ-81" value="~" style="text;html=1;strokeColor=none;fillColor=none;align=center;verticalAlign=middle;whiteSpace=wrap;rounded=0;fontSize=36;" vertex="1" parent="1">
          <mxGeometry x="1701.5" y="461" width="150" height="120" as="geometry" />
        </mxCell>
        <mxCell id="EGOBInb5VxWkymXx5lzQ-82" value="&lt;span style=&quot;color: rgba(0 , 0 , 0 , 0) ; font-family: monospace ; font-size: 0px&quot;&gt;%3CmxGraphModel%3E%3Croot%3E%3CmxCell%20id%3D%220%22%2F%3E%3CmxCell%20id%3D%221%22%20parent%3D%220%22%2F%3E%3CmxCell%20id%3D%222%22%20value%3D%22%EC%82%AC%EC%9D%B4%EC%A6%88%22%20style%3D%22text%3Bhtml%3D1%3BstrokeColor%3Dnone%3BfillColor%3Dnone%3Balign%3Dcenter%3BverticalAlign%3Dmiddle%3BwhiteSpace%3Dwrap%3Brounded%3D0%3BfontSize%3D36%3B%22%20vertex%3D%221%22%20parent%3D%221%22%3E%3CmxGeometry%20x%3D%222000%22%20y%3D%22205%22%20width%3D%22190%22%20height%3D%2230%22%20as%3D%22geometry%22%2F%3E%3C%2FmxCell%3E%3C%2Froot%3E%3C%2FmxGraphModel%3E&lt;/span&gt;" style="rounded=0;whiteSpace=wrap;html=1;fontSize=36;" vertex="1" parent="1">
          <mxGeometry x="1980" y="161.5" width="230" height="625" as="geometry" />
        </mxCell>
        <mxCell id="EGOBInb5VxWkymXx5lzQ-95" style="edgeStyle=orthogonalEdgeStyle;rounded=0;orthogonalLoop=1;jettySize=auto;html=1;exitX=1;exitY=0.5;exitDx=0;exitDy=0;fontSize=36;" edge="1" parent="1" source="EGOBInb5VxWkymXx5lzQ-83" target="EGOBInb5VxWkymXx5lzQ-96">
          <mxGeometry relative="1" as="geometry">
            <mxPoint x="2420" y="270" as="targetPoint" />
          </mxGeometry>
        </mxCell>
        <mxCell id="EGOBInb5VxWkymXx5lzQ-83" value="사이즈" style="text;html=1;strokeColor=none;fillColor=none;align=center;verticalAlign=middle;whiteSpace=wrap;rounded=0;fontSize=36;" vertex="1" parent="1">
          <mxGeometry x="2000" y="205" width="190" height="30" as="geometry" />
        </mxCell>
        <mxCell id="EGOBInb5VxWkymXx5lzQ-84" value="색상" style="text;html=1;strokeColor=none;fillColor=none;align=center;verticalAlign=middle;whiteSpace=wrap;rounded=0;fontSize=36;" vertex="1" parent="1">
          <mxGeometry x="2000" y="291" width="190" height="30" as="geometry" />
        </mxCell>
        <mxCell id="EGOBInb5VxWkymXx5lzQ-94" style="edgeStyle=orthogonalEdgeStyle;rounded=0;orthogonalLoop=1;jettySize=auto;html=1;exitX=1;exitY=0.25;exitDx=0;exitDy=0;fontSize=36;entryX=0.5;entryY=1;entryDx=0;entryDy=0;" edge="1" parent="1" source="EGOBInb5VxWkymXx5lzQ-85" target="EGOBInb5VxWkymXx5lzQ-96">
          <mxGeometry relative="1" as="geometry">
            <mxPoint x="2420" y="320" as="targetPoint" />
          </mxGeometry>
        </mxCell>
        <mxCell id="EGOBInb5VxWkymXx5lzQ-85" value="수량&lt;span style=&quot;color: rgba(0 , 0 , 0 , 0) ; font-family: monospace ; font-size: 0px&quot;&gt;%3CmxGraphModel%3E%3Croot%3E%3CmxCell%20id%3D%220%22%2F%3E%3CmxCell%20id%3D%221%22%20parent%3D%220%22%2F%3E%3CmxCell%20id%3D%222%22%20value%3D%22%EC%82%AC%EC%9D%B4%EC%A6%88%22%20style%3D%22text%3Bhtml%3D1%3BstrokeColor%3Dnone%3BfillColor%3Dnone%3Balign%3Dcenter%3BverticalAlign%3Dmiddle%3BwhiteSpace%3Dwrap%3Brounded%3D0%3BfontSize%3D36%3B%22%20vertex%3D%221%22%20parent%3D%221%22%3E%3CmxGeometry%20x%3D%222000%22%20y%3D%22205%22%20width%3D%22190%22%20height%3D%2230%22%20as%3D%22geometry%22%2F%3E%3C%2FmxCell%3E%3C%2Froot%3E%3C%2FmxGraphModel%3E&lt;/span&gt;" style="text;html=1;strokeColor=none;fillColor=none;align=center;verticalAlign=middle;whiteSpace=wrap;rounded=0;fontSize=36;" vertex="1" parent="1">
          <mxGeometry x="2000" y="363" width="190" height="30" as="geometry" />
        </mxCell>
        <mxCell id="EGOBInb5VxWkymXx5lzQ-98" style="edgeStyle=orthogonalEdgeStyle;rounded=0;orthogonalLoop=1;jettySize=auto;html=1;exitX=1;exitY=0.25;exitDx=0;exitDy=0;fontSize=36;" edge="1" parent="1" source="EGOBInb5VxWkymXx5lzQ-86">
          <mxGeometry relative="1" as="geometry">
            <mxPoint x="2470" y="950" as="targetPoint" />
          </mxGeometry>
        </mxCell>
        <mxCell id="EGOBInb5VxWkymXx5lzQ-86" value="바로 구매" style="text;html=1;strokeColor=none;fillColor=none;align=center;verticalAlign=middle;whiteSpace=wrap;rounded=0;fontSize=36;" vertex="1" parent="1">
          <mxGeometry x="1995" y="440" width="190" height="30" as="geometry" />
        </mxCell>
        <mxCell id="EGOBInb5VxWkymXx5lzQ-87" value="장바구니&lt;span style=&quot;color: rgba(0 , 0 , 0 , 0) ; font-family: monospace ; font-size: 0px&quot;&gt;%3CmxGraphModel%3E%3Croot%3E%3CmxCell%20id%3D%220%22%2F%3E%3CmxCell%20id%3D%221%22%20parent%3D%220%22%2F%3E%3CmxCell%20id%3D%222%22%20value%3D%22%EC%82%AC%EC%9D%B4%EC%A6%88%22%20style%3D%22text%3Bhtml%3D1%3BstrokeColor%3Dnone%3BfillColor%3Dnone%3Balign%3Dcenter%3BverticalAlign%3Dmiddle%3BwhiteSpace%3Dwrap%3Brounded%3D0%3BfontSize%3D36%3B%22%20vertex%3D%221%22%20parent%3D%221%22%3E%3CmxGeometry%20x%3D%222000%22%20y%3D%22205%22%20width%3D%22190%22%20height%3D%2230%22%20as%3D%22geometry%22%2F%3E%3C%2FmxCell%3E%3C%2Froot%3E%3C%2FmxGraphModel%3E&lt;/span&gt;&lt;span style=&quot;color: rgba(0 , 0 , 0 , 0) ; font-family: monospace ; font-size: 0px&quot;&gt;%3CmxGraphModel%3E%3Croot%3E%3CmxCell%20id%3D%220%22%2F%3E%3CmxCell%20id%3D%221%22%20parent%3D%220%22%2F%3E%3CmxCell%20id%3D%222%22%20value%3D%22%EC%82%AC%EC%9D%B4%EC%A6%88%22%20style%3D%22text%3Bhtml%3D1%3BstrokeColor%3Dnone%3BfillColor%3Dnone%3Balign%3Dcenter%3BverticalAlign%3Dmiddle%3BwhiteSpace%3Dwrap%3Brounded%3D0%3BfontSize%3D36%3B%22%20vertex%3D%221%22%20parent%3D%221%22%3E%3CmxGeometry%20x%3D%222000%22%20y%3D%22205%22%20width%3D%22190%22%20height%3D%2230%22%20as%3D%22geometry%22%2F%3E%3C%2FmxCell%3E%3C%2Froot%3E%3C%2FmxGraphModel%3E&lt;/span&gt;" style="text;html=1;strokeColor=none;fillColor=none;align=center;verticalAlign=middle;whiteSpace=wrap;rounded=0;fontSize=36;" vertex="1" parent="1">
          <mxGeometry x="1995" y="509.5" width="190" height="30" as="geometry" />
        </mxCell>
        <mxCell id="EGOBInb5VxWkymXx5lzQ-88" value="위시리스트" style="text;html=1;strokeColor=none;fillColor=none;align=center;verticalAlign=middle;whiteSpace=wrap;rounded=0;fontSize=36;" vertex="1" parent="1">
          <mxGeometry x="1990" y="588" width="190" height="30" as="geometry" />
        </mxCell>
        <mxCell id="EGOBInb5VxWkymXx5lzQ-90" value="리뷰" style="text;html=1;strokeColor=none;fillColor=none;align=center;verticalAlign=middle;whiteSpace=wrap;rounded=0;fontSize=36;" vertex="1" parent="1">
          <mxGeometry x="1990" y="670" width="190" height="30" as="geometry" />
        </mxCell>
        <mxCell id="EGOBInb5VxWkymXx5lzQ-91" value="문의" style="text;html=1;strokeColor=none;fillColor=none;align=center;verticalAlign=middle;whiteSpace=wrap;rounded=0;fontSize=36;" vertex="1" parent="1">
          <mxGeometry x="1995" y="740" width="190" height="30" as="geometry" />
        </mxCell>
        <mxCell id="EGOBInb5VxWkymXx5lzQ-96" value="입력검사" style="text;html=1;strokeColor=none;fillColor=none;align=center;verticalAlign=middle;whiteSpace=wrap;rounded=0;fontSize=36;" vertex="1" parent="1">
          <mxGeometry x="2390" y="275" width="230" height="30" as="geometry" />
        </mxCell>
        <mxCell id="EGOBInb5VxWkymXx5lzQ-100" value="" style="rounded=0;whiteSpace=wrap;html=1;fontSize=36;" vertex="1" parent="1">
          <mxGeometry x="2200" y="950" width="1000" height="730" as="geometry" />
        </mxCell>
        <mxCell id="EGOBInb5VxWkymXx5lzQ-101" value="주문내역" style="swimlane;fontStyle=0;childLayout=stackLayout;horizontal=1;startSize=50;horizontalStack=0;resizeParent=1;resizeParentMax=0;resizeLast=0;collapsible=1;marginBottom=0;fontSize=36;" vertex="1" parent="1">
          <mxGeometry x="2890" y="1040" width="270" height="460" as="geometry" />
        </mxCell>
        <mxCell id="EGOBInb5VxWkymXx5lzQ-102" value="제품명" style="text;strokeColor=none;fillColor=none;align=left;verticalAlign=middle;spacingLeft=4;spacingRight=4;overflow=hidden;points=[[0,0.5],[1,0.5]];portConstraint=eastwest;rotatable=0;fontSize=36;" vertex="1" parent="EGOBInb5VxWkymXx5lzQ-101">
          <mxGeometry y="50" width="270" height="80" as="geometry" />
        </mxCell>
        <mxCell id="EGOBInb5VxWkymXx5lzQ-103" value="상품 금액&#xa;&#xa;배송비" style="text;strokeColor=none;fillColor=none;align=left;verticalAlign=middle;spacingLeft=4;spacingRight=4;overflow=hidden;points=[[0,0.5],[1,0.5]];portConstraint=eastwest;rotatable=0;fontSize=36;" vertex="1" parent="EGOBInb5VxWkymXx5lzQ-101">
          <mxGeometry y="130" width="270" height="150" as="geometry" />
        </mxCell>
        <mxCell id="EGOBInb5VxWkymXx5lzQ-104" value="총 결제 금액" style="text;strokeColor=none;fillColor=none;align=left;verticalAlign=middle;spacingLeft=4;spacingRight=4;overflow=hidden;points=[[0,0.5],[1,0.5]];portConstraint=eastwest;rotatable=0;fontSize=36;" vertex="1" parent="EGOBInb5VxWkymXx5lzQ-101">
          <mxGeometry y="280" width="270" height="180" as="geometry" />
        </mxCell>
        <mxCell id="EGOBInb5VxWkymXx5lzQ-107" value="구매자 정보" style="swimlane;fontSize=26;startSize=80;" vertex="1" parent="1">
          <mxGeometry x="2240" y="1040" width="630" height="460" as="geometry" />
        </mxCell>
        <mxCell id="EGOBInb5VxWkymXx5lzQ-108" value="구매자&amp;nbsp; 이름" style="text;html=1;strokeColor=none;fillColor=none;align=center;verticalAlign=middle;whiteSpace=wrap;rounded=0;fontSize=26;" vertex="1" parent="EGOBInb5VxWkymXx5lzQ-107">
          <mxGeometry x="30" y="110" width="210" height="30" as="geometry" />
        </mxCell>
        <mxCell id="EGOBInb5VxWkymXx5lzQ-110" value="배송지" style="text;html=1;strokeColor=none;fillColor=none;align=center;verticalAlign=middle;whiteSpace=wrap;rounded=0;fontSize=26;" vertex="1" parent="EGOBInb5VxWkymXx5lzQ-107">
          <mxGeometry x="30" y="200" width="210" height="30" as="geometry" />
        </mxCell>
        <mxCell id="EGOBInb5VxWkymXx5lzQ-109" value="전화번호" style="text;html=1;strokeColor=none;fillColor=none;align=center;verticalAlign=middle;whiteSpace=wrap;rounded=0;fontSize=26;" vertex="1" parent="EGOBInb5VxWkymXx5lzQ-107">
          <mxGeometry x="30" y="150" width="210" height="30" as="geometry" />
        </mxCell>
        <mxCell id="EGOBInb5VxWkymXx5lzQ-112" value="결제 수단 선택" style="text;html=1;strokeColor=none;fillColor=none;align=center;verticalAlign=middle;whiteSpace=wrap;rounded=0;fontSize=26;" vertex="1" parent="EGOBInb5VxWkymXx5lzQ-107">
          <mxGeometry x="30" y="250" width="210" height="30" as="geometry" />
        </mxCell>
        <mxCell id="EGOBInb5VxWkymXx5lzQ-116" style="edgeStyle=orthogonalEdgeStyle;rounded=0;orthogonalLoop=1;jettySize=auto;html=1;exitX=0.5;exitY=0;exitDx=0;exitDy=0;fontSize=26;" edge="1" parent="1" source="EGOBInb5VxWkymXx5lzQ-113">
          <mxGeometry relative="1" as="geometry">
            <mxPoint x="1890" y="1280" as="targetPoint" />
            <Array as="points">
              <mxPoint x="2555" y="1280" />
            </Array>
          </mxGeometry>
        </mxCell>
        <mxCell id="EGOBInb5VxWkymXx5lzQ-113" value="" style="rounded=0;whiteSpace=wrap;html=1;fontSize=26;" vertex="1" parent="1">
          <mxGeometry x="2240" y="1520" width="630" height="60" as="geometry" />
        </mxCell>
        <mxCell id="EGOBInb5VxWkymXx5lzQ-114" value="결제" style="text;html=1;strokeColor=none;fillColor=none;align=center;verticalAlign=middle;whiteSpace=wrap;rounded=0;fontSize=26;" vertex="1" parent="1">
          <mxGeometry x="2525" y="1535" width="60" height="30" as="geometry" />
        </mxCell>
        <mxCell id="EGOBInb5VxWkymXx5lzQ-115" value="LOGO" style="whiteSpace=wrap;html=1;rounded=0;shadow=0;labelBackgroundColor=none;strokeWidth=1;fontFamily=Verdana;fontSize=28;align=center;comic=1;" vertex="1" parent="1">
          <mxGeometry x="2220" y="980" width="70" height="30" as="geometry" />
        </mxCell>
        <mxCell id="EGOBInb5VxWkymXx5lzQ-118" value="" style="rounded=0;whiteSpace=wrap;html=1;fontSize=26;" vertex="1" parent="1">
          <mxGeometry x="1010" y="950" width="880" height="720" as="geometry" />
        </mxCell>
        <mxCell id="EGOBInb5VxWkymXx5lzQ-119" value="LOGO" style="whiteSpace=wrap;html=1;rounded=0;shadow=0;labelBackgroundColor=none;strokeWidth=1;fontFamily=Verdana;fontSize=28;align=center;comic=1;" vertex="1" parent="1">
          <mxGeometry x="1050" y="990" width="70" height="30" as="geometry" />
        </mxCell>
        <mxCell id="EGOBInb5VxWkymXx5lzQ-120" value="" style="rounded=0;whiteSpace=wrap;html=1;fontSize=26;" vertex="1" parent="1">
          <mxGeometry x="1220" y="1520" width="180" height="60" as="geometry" />
        </mxCell>
        <mxCell id="EGOBInb5VxWkymXx5lzQ-124" value="결제 완료" style="text;html=1;strokeColor=none;fillColor=none;align=center;verticalAlign=middle;whiteSpace=wrap;rounded=0;fontSize=26;" vertex="1" parent="1">
          <mxGeometry x="1247.5" y="1535" width="130" height="30" as="geometry" />
        </mxCell>
        <mxCell id="EGOBInb5VxWkymXx5lzQ-125" value="" style="rounded=0;whiteSpace=wrap;html=1;fontSize=26;" vertex="1" parent="1">
          <mxGeometry x="1200" y="1040" width="510" height="450" as="geometry" />
        </mxCell>
        <mxCell id="EGOBInb5VxWkymXx5lzQ-126" value="제품명" style="text;strokeColor=none;fillColor=none;align=left;verticalAlign=middle;spacingLeft=4;spacingRight=4;overflow=hidden;points=[[0,0.5],[1,0.5]];portConstraint=eastwest;rotatable=0;fontSize=36;" vertex="1" parent="1">
          <mxGeometry x="1247.5" y="1050" width="270" height="80" as="geometry" />
        </mxCell>
        <mxCell id="EGOBInb5VxWkymXx5lzQ-127" value="구매자 이름&#xa;&#xa;상품 금액&#xa;&#xa;배송지&#xa;&#xa;결제 수단" style="text;strokeColor=none;fillColor=none;align=left;verticalAlign=middle;spacingLeft=4;spacingRight=4;overflow=hidden;points=[[0,0.5],[1,0.5]];portConstraint=eastwest;rotatable=0;fontSize=36;" vertex="1" parent="1">
          <mxGeometry x="1247.5" y="1140" width="270" height="290" as="geometry" />
        </mxCell>
        <mxCell id="EGOBInb5VxWkymXx5lzQ-128" value="" style="rounded=0;whiteSpace=wrap;html=1;fontSize=26;" vertex="1" parent="1">
          <mxGeometry x="1440" y="1520" width="200" height="60" as="geometry" />
        </mxCell>
        <mxCell id="EGOBInb5VxWkymXx5lzQ-129" value="메인 화면" style="text;html=1;strokeColor=none;fillColor=none;align=center;verticalAlign=middle;whiteSpace=wrap;rounded=0;fontSize=26;" vertex="1" parent="1">
          <mxGeometry x="1457.5" y="1535" width="172.5" height="30" as="geometry" />
        </mxCell>
      </root>
    </mxGraphModel>
  </diagram>
</mxfile>
